<svg xmlns="http://www.w3.org/2000/svg" viewBox="0 0 256 256" fill="none">
  <rect x="16" y="16" width="224" height="224" rx="56" fill="#E9ECF1"/>
  <circle cx="38" cy="38" r="4" fill="#15376A"/>
  <circle cx="56" cy="66" r="3.5" fill="#15376A"/>
  <circle cx="206" cy="40" r="4" fill="#15376A"/>
  <circle cx="218" cy="74" r="3.5" fill="#15376A"/>
  <circle cx="46" cy="205" r="3.5" fill="#15376A"/>
  <circle cx="216" cy="202" r="4" fill="#15376A"/>

  <path
    d="M133 58c20-2 39 5 55 20 17 16 31 39 42 67 9 25 12 47 8 65-4 17-14 29-30 38-16 9-39 13-68 11-27-1-51-6-72-15-18-8-30-19-36-34-5-13-4-28 4-43 8-16 20-33 38-51 5-5 14-14 28-26 13-12 24-25 31-32Z"
    fill="#0A2D5C"/>
  <path
    d="M91 55 106 18l23 31-9 26c-11-2-21-9-29-20ZM158 18l20 36-27 4-8-11 15-29Z"
    fill="#0A2D5C"/>
  <path
    d="M112 63c-8 1-17 8-25 22-7 12-11 24-13 34 9-8 19-11 29-10l9-18V63Z"
    fill="#0A2D5C"/>
  <path
    d="M109 60c4-11 12-20 25-25 11-5 23-4 35 2 9 5 15 13 18 24 3 10 1 20-6 29-8 10-18 16-31 17-13 1-24-3-32-11-6-7-10-16-9-27 0-3 0-6 0-9Z"
    fill="#123F79"/>
  <path
    d="M105 39c5-6 11-10 18-12l-3 22c-7-1-12-4-15-10ZM152 29c7 2 14 7 20 15l-17 3-3-18Z"
    fill="#3DB7E5"/>
  <path
    d="M87 78c9 10 22 14 38 12-4 10-12 17-24 22-10 4-21 4-31 0 2-14 8-25 17-34Z"
    fill="#2D9BD0"/>
  <path
    d="M103 120c-14 20-21 42-21 64 0 18 6 34 19 48-20-5-35-13-45-24-11-13-16-28-13-45 3-16 11-31 23-45 11-13 23-22 37-28Z"
    fill="#194C82"/>
  <path
    d="M53 176c26 3 48 11 66 24 18 13 28 27 31 43-17 6-39 8-67 4-28-4-49-12-63-24-10-9-15-19-13-30 2-9 8-15 18-17 8-2 17-2 28 0Z"
    fill="#0A2D5C"/>
  <path
    d="M69 190c26 1 47 8 62 22 12 11 19 23 21 35-14 5-32 6-55 3-22-3-39-9-50-18-7-6-10-12-9-19 2-14 12-21 31-23Z"
    fill="#1A568A"/>
  <path
    d="M172 88c14 10 26 25 36 47 8 17 12 34 13 49-6-11-15-21-28-30-15-10-30-15-47-15-10 0-19 1-29 4 5-13 13-25 22-35 8-9 19-15 33-20Z"
    fill="#0B2D5C"/>
  <path
    d="M83 182c10-11 19-18 29-21 10-4 23-3 38 1-11 8-19 18-24 29-6 11-8 24-7 40-12-9-22-16-29-23-8-8-11-17-10-26 1-1 2-2 3-3Z"
    fill="#071E3E"/>
  <path
    d="M150 170c14 0 27 3 40 10-10 9-18 22-23 39-1 2-1 4-2 6-8-5-14-12-18-20-4-9-5-18-4-27 1-3 3-6 7-8Z"
    fill="#1B568B"/>
  <path
    d="M171 188c14 0 26 4 37 13-7 7-12 17-15 29-9-2-16-7-22-14-6-8-8-17-7-28 2 0 4 0 7 0Z"
    fill="#0A2D5C"/>

  <circle cx="105" cy="74" r="5.5" fill="#EAF4FA"/>
  <circle cx="152" cy="73" r="5.5" fill="#EAF4FA"/>
  <circle cx="105" cy="74" r="2.5" fill="#15376A"/>
  <circle cx="152" cy="73" r="2.5" fill="#15376A"/>
  <path d="M108 92c7 6 15 6 25 1" stroke="#061428" stroke-width="4" stroke-linecap="round"/>
  <path d="M119 84c3-2 7-2 10 0-1 5-3 8-5 10-3-2-4-5-5-10Z" fill="#534239"/>

  <path
    d="M181 175c8 0 15 4 22 10-7 8-10 16-10 25-10-1-18-5-24-11-6-6-9-14-8-23 4-1 7-1 10-1h10Z"
    fill="#F2EBBA"/>
  <path
    d="M194 185c5 0 10 1 16 4-7 5-12 12-15 21-5 0-9-1-14-4 2-10 7-17 13-21Z"
    fill="#0A2D5C"/>

  <g fill="#F6F0D1">
    <path d="M102 37 105 45 113 48 105 51 102 60 99 51 91 48 99 45 102 37Z"/>
    <path d="M165 50 168 58 176 61 168 64 165 73 162 64 154 61 162 58 165 50Z"/>
    <path d="M188 111 191 121 201 124 191 127 188 138 185 127 175 124 185 121 188 111Z"/>
    <path d="M69 216 72 224 80 227 72 230 69 239 66 230 58 227 66 224 69 216Z"/>
    <path d="M132 162 135 170 143 173 135 176 132 185 129 176 121 173 129 170 132 162Z"/>
    <path d="M165 148 167 154 173 156 167 158 165 165 163 158 157 156 163 154 165 148Z"/>
    <circle cx="113" cy="151" r="2"/>
    <circle cx="151" cy="133" r="1.8"/>
    <circle cx="183" cy="144" r="1.8"/>
    <circle cx="173" cy="96" r="1.6"/>
    <circle cx="138" cy="46" r="1.8"/>
    <circle cx="147" cy="206" r="1.8"/>
    <circle cx="102" cy="203" r="1.6"/>
    <circle cx="82" cy="168" r="1.6"/>
  </g>
</svg>
